<svg width="20" height="19" viewBox="0 0 20 19" fill="none" xmlns="http://www.w3.org/2000/svg">
<path d="M9.79612 16.7782L9.08901 17.4853C9.27655 17.6728 9.5309 17.7782 9.79612 17.7782C10.0613 17.7782 10.3157 17.6728 10.5032 17.4853L9.79612 16.7782ZM2.63876 9.62083L1.93165 10.3279L1.93165 10.3279L2.63876 9.62083ZM8.63876 3.62083L7.93165 4.32794L7.93165 4.32794L8.63876 3.62083ZM9.79612 4.77819L9.08901 5.4853C9.27655 5.67283 9.5309 5.77819 9.79612 5.77819C10.0613 5.77819 10.3157 5.67283 10.5032 5.4853L9.79612 4.77819ZM10.9535 3.62083L10.2464 2.91372L10.2464 2.91372L10.9535 3.62083ZM10.5032 16.0711L3.34586 8.91372L1.93165 10.3279L9.08901 17.4853L10.5032 16.0711ZM16.2464 8.91372L9.08901 16.0711L10.5032 17.4853L17.6606 10.3279L16.2464 8.91372ZM7.93165 4.32794L9.08901 5.4853L10.5032 4.07108L9.34586 2.91372L7.93165 4.32794ZM10.5032 5.4853L11.6606 4.32794L10.2464 2.91372L9.08901 4.07108L10.5032 5.4853ZM13.9535 1.37819C12.563 1.37819 11.2296 1.93054 10.2464 2.91372L11.6606 4.32794C12.2687 3.71982 13.0935 3.37819 13.9535 3.37819V1.37819ZM17.1961 6.62083C17.1961 7.48083 16.8545 8.30561 16.2464 8.91372L17.6606 10.3279C18.6438 9.34475 19.1961 8.01126 19.1961 6.62083H17.1961ZM19.1961 6.62083C19.1961 3.7254 16.8489 1.37819 13.9535 1.37819V3.37819C15.7443 3.37819 17.1961 4.82997 17.1961 6.62083H19.1961ZM5.63876 3.37819C6.49876 3.37819 7.32354 3.71982 7.93165 4.32794L9.34586 2.91372C8.36268 1.93054 7.02919 1.37819 5.63876 1.37819V3.37819ZM2.39612 6.62083C2.39612 4.82997 3.8479 3.37819 5.63876 3.37819V1.37819C2.74333 1.37819 0.396118 3.7254 0.396118 6.62083H2.39612ZM3.34586 8.91372C2.73775 8.30561 2.39612 7.48083 2.39612 6.62083H0.396118C0.396118 8.01126 0.948464 9.34475 1.93165 10.3279L3.34586 8.91372Z" fill="#555B6A"/>
</svg>
