<svg width="22" height="22" viewBox="0 0 22 22" fill="none" xmlns="http://www.w3.org/2000/svg">
<path d="M19.4151 17.9779L18.8342 18.7935C19.1395 19.0109 19.5407 19.0396 19.8739 18.8679C20.207 18.6962 20.4164 18.3527 20.4164 17.9779H19.4151ZM19.4151 4.11215H20.4164C20.4164 3.73732 20.207 3.39388 19.8739 3.22213C19.5407 3.05039 19.1395 3.07909 18.8342 3.29653L19.4151 4.11215ZM9.68008 11.045L9.09922 10.2294C8.83541 10.4173 8.67876 10.7211 8.67876 11.045C8.67876 11.3689 8.83541 11.6728 9.09922 11.8606L9.68008 11.045ZM20.4164 17.9779V4.11215H18.4138V17.9779H20.4164ZM18.8342 3.29653L9.09922 10.2294L10.2609 11.8606L19.9959 4.92777L18.8342 3.29653ZM9.09922 11.8606L18.8342 18.7935L19.9959 17.1623L10.2609 10.2294L9.09922 11.8606ZM3.72783 18.6712V3.41886H1.7252V18.6712H3.72783Z" fill="#EAF0FF"/>
</svg>
