<svg width="22" height="22" viewBox="0 0 22 22" fill="none" xmlns="http://www.w3.org/2000/svg">
<path d="M2.95416 4.11226L3.53502 3.29664C3.2297 3.07921 2.82851 3.0505 2.49535 3.22225C2.16219 3.394 1.95285 3.73744 1.95285 4.11226H2.95416ZM2.95416 17.978H1.95285C1.95285 18.3528 2.16219 18.6963 2.49535 18.868C2.82851 19.0398 3.2297 19.0111 3.53502 18.7936L2.95416 17.978ZM12.6892 11.0451L13.27 11.8608C13.5338 11.6729 13.6905 11.369 13.6905 11.0451C13.6905 10.7213 13.5338 10.4174 13.27 10.2295L12.6892 11.0451ZM1.95285 4.11226V17.978H3.95548V4.11226H1.95285ZM3.53502 18.7936L13.27 11.8608L12.1083 10.2295L2.37331 17.1624L3.53502 18.7936ZM13.27 10.2295L3.53502 3.29664L2.37331 4.92788L12.1083 11.8608L13.27 10.2295ZM18.6414 3.41898V18.6713H20.644V3.41898H18.6414Z" fill="#EAF0FF"/>
</svg>
