<svg width="30" height="33" viewBox="0 0 30 33" fill="none" xmlns="http://www.w3.org/2000/svg">
<path d="M27.028 26.859L26.1082 28.044C26.5606 28.3951 27.1734 28.458 27.6876 28.2062C28.2019 27.9543 28.528 27.4317 28.528 26.859H27.028ZM27.028 5.72917H28.528C28.528 5.15653 28.2019 4.63386 27.6876 4.38202C27.1734 4.13018 26.5606 4.19312 26.1082 4.54423L27.028 5.72917ZM13.4168 16.2941L12.4971 15.1092C12.131 15.3933 11.9168 15.8307 11.9168 16.2941C11.9168 16.7575 12.131 17.1949 12.4971 17.479L13.4168 16.2941ZM28.528 26.859V5.72917H25.528V26.859H28.528ZM26.1082 4.54423L12.4971 15.1092L14.3366 17.479L27.9477 6.9141L26.1082 4.54423ZM12.4971 17.479L26.1082 28.044L27.9477 25.6741L14.3366 15.1092L12.4971 17.479ZM5.19461 27.9155V4.67268H2.19461V27.9155H5.19461Z" fill="#EAF0FF"/>
</svg>
