<svg width="30" height="33" viewBox="0 0 30 33" fill="none" xmlns="http://www.w3.org/2000/svg">
<path d="M3.56438 5.72918L4.48412 4.54424C4.03177 4.19312 3.41897 4.13019 2.90469 4.38203C2.39041 4.63387 2.06438 5.15654 2.06438 5.72918H3.56438ZM3.56438 26.859H2.06438C2.06438 27.4317 2.39041 27.9543 2.90469 28.2062C3.41897 28.458 4.03177 28.3951 4.48412 28.044L3.56438 26.859ZM17.1754 16.2941L18.0952 17.479C18.4612 17.1949 18.6754 16.7575 18.6754 16.2941C18.6754 15.8307 18.4612 15.3933 18.0952 15.1092L17.1754 16.2941ZM2.06438 5.72918V26.859H5.06438V5.72918H2.06438ZM4.48412 28.044L18.0952 17.479L16.2557 15.1092L2.64463 25.6741L4.48412 28.044ZM18.0952 15.1092L4.48412 4.54424L2.64463 6.91411L16.2557 17.479L18.0952 15.1092ZM25.3976 4.67268V27.9155H28.3976V4.67268H25.3976Z" fill="#EAF0FF"/>
</svg>
